<svg width="2037" height="1244" viewBox="0 0 2037 1244" fill="none" xmlns="http://www.w3.org/2000/svg">
<rect width="2036.27" height="1244" rx="129" fill="black"/>
<path d="M890.932 1094.76V873.404L1063.71 984.082L890.932 1094.76Z" fill="white" stroke="white"/>
<path d="M1317.12 1094.76V873.404L1489.9 984.082L1317.12 1094.76Z" fill="white" stroke="white"/>
<path d="M1430.3 1094.76V873.404L1603.08 984.082L1430.3 1094.76Z" fill="white" stroke="white"/>
<path d="M454.219 424.495H425C424.167 419.703 422.631 415.458 420.391 411.76C418.151 408.01 415.365 404.833 412.032 402.229C408.698 399.625 404.896 397.672 400.625 396.37C396.407 395.015 391.849 394.338 386.953 394.338C378.256 394.338 370.547 396.526 363.828 400.901C357.11 405.224 351.849 411.578 348.047 419.963C344.245 428.297 342.344 438.479 342.344 450.51C342.344 462.75 344.245 473.062 348.047 481.448C351.901 489.781 357.162 496.083 363.828 500.354C370.547 504.573 378.23 506.682 386.875 506.682C391.667 506.682 396.146 506.057 400.313 504.807C404.532 503.505 408.308 501.604 411.641 499.104C415.026 496.604 417.865 493.531 420.157 489.885C422.5 486.239 424.115 482.073 425 477.385L454.219 477.542C453.125 485.146 450.756 492.281 447.11 498.948C443.516 505.614 438.802 511.5 432.969 516.604C427.136 521.656 420.313 525.614 412.5 528.479C404.688 531.292 396.016 532.698 386.485 532.698C372.422 532.698 359.87 529.443 348.828 522.932C337.787 516.422 329.089 507.021 322.735 494.729C316.381 482.437 313.203 467.698 313.203 450.51C313.203 433.271 316.407 418.531 322.813 406.292C329.219 394 337.943 384.599 348.985 378.088C360.026 371.578 372.526 368.323 386.485 368.323C395.391 368.323 403.672 369.573 411.328 372.073C418.985 374.573 425.808 378.245 431.797 383.088C437.787 387.88 442.709 393.765 446.563 400.745C450.469 407.672 453.021 415.588 454.219 424.495ZM523.056 532.854C511.337 532.854 501.181 530.276 492.587 525.12C483.993 519.963 477.327 512.75 472.587 503.479C467.9 494.208 465.556 483.375 465.556 470.979C465.556 458.583 467.9 447.724 472.587 438.401C477.327 429.078 483.993 421.838 492.587 416.682C501.181 411.526 511.337 408.948 523.056 408.948C534.775 408.948 544.931 411.526 553.525 416.682C562.118 421.838 568.759 429.078 573.446 438.401C578.186 447.724 580.556 458.583 580.556 470.979C580.556 483.375 578.186 494.208 573.446 503.479C568.759 512.75 562.118 519.963 553.525 525.12C544.931 530.276 534.775 532.854 523.056 532.854ZM523.212 510.198C529.566 510.198 534.879 508.453 539.15 504.963C543.42 501.422 546.597 496.682 548.681 490.745C550.816 484.807 551.884 478.193 551.884 470.901C551.884 463.557 550.816 456.917 548.681 450.979C546.597 444.989 543.42 440.224 539.15 436.682C534.879 433.14 529.566 431.37 523.212 431.37C516.702 431.37 511.285 433.14 506.962 436.682C502.691 440.224 499.488 444.989 497.353 450.979C495.269 456.917 494.228 463.557 494.228 470.901C494.228 478.193 495.269 484.807 497.353 490.745C499.488 496.682 502.691 501.422 506.962 504.963C511.285 508.453 516.702 510.198 523.212 510.198ZM624.041 460.198V530.51H595.76V410.51H622.791V430.901H624.197C626.958 424.182 631.359 418.844 637.4 414.885C643.494 410.927 651.02 408.948 659.978 408.948C668.26 408.948 675.473 410.719 681.619 414.26C687.817 417.802 692.609 422.932 695.994 429.651C699.432 436.37 701.124 444.521 701.072 454.104V530.51H672.791V458.479C672.791 450.458 670.708 444.182 666.541 439.651C662.426 435.12 656.723 432.854 649.432 432.854C644.484 432.854 640.083 433.948 636.228 436.135C632.426 438.271 629.432 441.37 627.244 445.432C625.109 449.495 624.041 454.417 624.041 460.198ZM780.944 410.51V432.385H711.96V410.51H780.944ZM728.991 381.76H757.272V494.417C757.272 498.219 757.845 501.135 758.991 503.167C760.189 505.146 761.751 506.5 763.678 507.229C765.606 507.958 767.741 508.323 770.085 508.323C771.856 508.323 773.47 508.193 774.929 507.932C776.439 507.672 777.585 507.437 778.366 507.229L783.132 529.338C781.621 529.859 779.46 530.432 776.647 531.057C773.887 531.682 770.501 532.047 766.491 532.151C759.408 532.359 753.027 531.292 747.35 528.948C741.673 526.552 737.168 522.854 733.835 517.854C730.553 512.854 728.939 506.604 728.991 499.104V381.76ZM847.632 532.854C835.601 532.854 825.211 530.354 816.461 525.354C807.763 520.302 801.07 513.167 796.382 503.948C791.695 494.677 789.351 483.765 789.351 471.213C789.351 458.87 791.695 448.036 796.382 438.713C801.122 429.338 807.737 422.047 816.226 416.838C824.716 411.578 834.69 408.948 846.148 408.948C853.544 408.948 860.523 410.146 867.086 412.541C873.7 414.885 879.533 418.531 884.586 423.479C889.69 428.427 893.7 434.729 896.617 442.385C899.533 449.989 900.992 459.052 900.992 469.573V478.245H802.632V459.182H873.882C873.83 453.765 872.658 448.948 870.367 444.729C868.075 440.458 864.872 437.099 860.757 434.651C856.695 432.203 851.955 430.979 846.539 430.979C840.757 430.979 835.679 432.385 831.304 435.198C826.929 437.958 823.518 441.604 821.07 446.135C818.674 450.614 817.45 455.536 817.398 460.901V477.542C817.398 484.521 818.674 490.51 821.226 495.51C823.778 500.458 827.346 504.26 831.929 506.917C836.513 509.521 841.877 510.823 848.023 510.823C852.138 510.823 855.862 510.25 859.195 509.104C862.528 507.906 865.419 506.161 867.867 503.87C870.315 501.578 872.164 498.739 873.414 495.354L899.82 498.323C898.153 505.302 894.976 511.396 890.289 516.604C885.653 521.76 879.716 525.771 872.476 528.635C865.237 531.448 856.955 532.854 847.632 532.854ZM944.399 460.198V530.51H916.118V410.51H943.149V430.901H944.555C947.315 424.182 951.717 418.844 957.758 414.885C963.852 410.927 971.378 408.948 980.336 408.948C988.618 408.948 995.831 410.719 1001.98 414.26C1008.17 417.802 1012.97 422.932 1016.35 429.651C1019.79 436.37 1021.48 444.521 1021.43 454.104V530.51H993.149V458.479C993.149 450.458 991.065 444.182 986.899 439.651C982.784 435.12 977.081 432.854 969.789 432.854C964.842 432.854 960.44 433.948 956.586 436.135C952.784 438.271 949.789 441.37 947.602 445.432C945.467 449.495 944.399 454.417 944.399 460.198ZM1101.3 410.51V432.385H1032.32V410.51H1101.3ZM1049.35 381.76H1077.63V494.417C1077.63 498.219 1078.2 501.135 1079.35 503.167C1080.55 505.146 1082.11 506.5 1084.04 507.229C1085.96 507.958 1088.1 508.323 1090.44 508.323C1092.21 508.323 1093.83 508.193 1095.29 507.932C1096.8 507.672 1097.94 507.437 1098.72 507.229L1103.49 529.338C1101.98 529.859 1099.82 530.432 1097.01 531.057C1094.24 531.682 1090.86 532.047 1086.85 532.151C1079.77 532.359 1073.39 531.292 1067.71 528.948C1062.03 526.552 1057.53 522.854 1054.19 517.854C1050.91 512.854 1049.3 506.604 1049.35 499.104V381.76ZM1204.36 414.495C1203.63 407.672 1200.56 402.359 1195.14 398.557C1189.77 394.755 1182.79 392.854 1174.2 392.854C1168.16 392.854 1162.98 393.765 1158.65 395.588C1154.33 397.411 1151.02 399.885 1148.73 403.01C1146.44 406.135 1145.27 409.703 1145.22 413.713C1145.22 417.047 1145.97 419.937 1147.48 422.385C1149.04 424.833 1151.15 426.917 1153.81 428.635C1156.47 430.302 1159.41 431.708 1162.64 432.854C1165.87 434 1169.12 434.963 1172.4 435.745L1187.4 439.495C1193.45 440.901 1199.25 442.802 1204.83 445.198C1210.45 447.594 1215.48 450.614 1219.9 454.26C1224.38 457.906 1227.93 462.307 1230.53 467.463C1233.13 472.62 1234.44 478.661 1234.44 485.588C1234.44 494.963 1232.04 503.219 1227.25 510.354C1222.46 517.437 1215.53 522.984 1206.47 526.995C1197.46 530.953 1186.54 532.932 1173.73 532.932C1161.28 532.932 1150.48 531.005 1141.31 527.151C1132.2 523.297 1125.06 517.672 1119.9 510.276C1114.8 502.88 1112.04 493.87 1111.62 483.245H1140.14C1140.56 488.818 1142.27 493.453 1145.29 497.151C1148.32 500.849 1152.25 503.609 1157.09 505.432C1161.99 507.255 1167.46 508.167 1173.5 508.167C1179.8 508.167 1185.32 507.229 1190.06 505.354C1194.85 503.427 1198.6 500.771 1201.31 497.385C1204.02 493.948 1205.4 489.937 1205.45 485.354C1205.4 481.187 1204.18 477.75 1201.78 475.042C1199.38 472.281 1196.02 469.989 1191.7 468.167C1187.43 466.292 1182.43 464.625 1176.7 463.167L1158.5 458.479C1145.32 455.094 1134.9 449.963 1127.25 443.088C1119.64 436.161 1115.84 426.969 1115.84 415.51C1115.84 406.083 1118.39 397.828 1123.5 390.745C1128.65 383.661 1135.66 378.167 1144.51 374.26C1153.37 370.302 1163.39 368.323 1174.59 368.323C1185.95 368.323 1195.89 370.302 1204.44 374.26C1213.03 378.167 1219.77 383.609 1224.67 390.588C1229.57 397.515 1232.09 405.484 1232.25 414.495H1204.36ZM1250.23 575.51V410.51H1278.04V430.354H1279.68C1281.14 427.437 1283.19 424.338 1285.85 421.057C1288.51 417.724 1292.1 414.885 1296.63 412.541C1301.16 410.146 1306.94 408.948 1313.98 408.948C1323.25 408.948 1331.61 411.318 1339.05 416.057C1346.55 420.745 1352.49 427.698 1356.87 436.916C1361.29 446.083 1363.51 457.333 1363.51 470.667C1363.51 483.844 1361.35 495.042 1357.02 504.26C1352.7 513.479 1346.81 520.51 1339.37 525.354C1331.92 530.198 1323.48 532.62 1314.05 532.62C1307.18 532.62 1301.48 531.474 1296.94 529.182C1292.41 526.89 1288.77 524.13 1286.01 520.901C1283.3 517.62 1281.19 514.521 1279.68 511.604H1278.51V575.51H1250.23ZM1277.96 470.51C1277.96 478.271 1279.05 485.068 1281.24 490.901C1283.48 496.734 1286.68 501.292 1290.85 504.573C1295.07 507.802 1300.17 509.417 1306.16 509.417C1312.41 509.417 1317.65 507.75 1321.87 504.417C1326.08 501.031 1329.26 496.422 1331.4 490.588C1333.58 484.703 1334.68 478.01 1334.68 470.51C1334.68 463.062 1333.61 456.448 1331.48 450.666C1329.34 444.885 1326.16 440.354 1321.94 437.073C1317.73 433.791 1312.46 432.151 1306.16 432.151C1300.12 432.151 1294.99 433.739 1290.77 436.916C1286.55 440.094 1283.35 444.547 1281.16 450.276C1279.03 456.005 1277.96 462.75 1277.96 470.51ZM1413.46 532.932C1405.85 532.932 1399 531.578 1392.91 528.87C1386.87 526.109 1382.08 522.047 1378.53 516.682C1375.05 511.318 1373.3 504.703 1373.3 496.838C1373.3 490.068 1374.55 484.469 1377.05 480.042C1379.55 475.614 1382.96 472.073 1387.28 469.417C1391.61 466.76 1396.48 464.755 1401.89 463.401C1407.36 461.995 1413.01 460.979 1418.85 460.354C1425.88 459.625 1431.58 458.974 1435.96 458.401C1440.33 457.776 1443.51 456.838 1445.49 455.588C1447.52 454.286 1448.53 452.281 1448.53 449.573V449.104C1448.53 443.219 1446.79 438.661 1443.3 435.432C1439.81 432.203 1434.78 430.588 1428.22 430.588C1421.3 430.588 1415.8 432.099 1411.74 435.12C1407.73 438.14 1405.02 441.708 1403.61 445.823L1377.21 442.073C1379.29 434.781 1382.73 428.687 1387.52 423.791C1392.31 418.844 1398.17 415.146 1405.1 412.698C1412.02 410.198 1419.68 408.948 1428.07 408.948C1433.85 408.948 1439.6 409.625 1445.33 410.979C1451.06 412.333 1456.3 414.573 1461.03 417.698C1465.77 420.771 1469.58 424.963 1472.44 430.276C1475.36 435.588 1476.82 442.229 1476.82 450.198V530.51H1449.63V514.026H1448.69C1446.97 517.359 1444.55 520.484 1441.43 523.401C1438.35 526.265 1434.47 528.583 1429.78 530.354C1425.15 532.073 1419.71 532.932 1413.46 532.932ZM1420.8 512.151C1426.48 512.151 1431.4 511.031 1435.57 508.792C1439.73 506.5 1442.94 503.479 1445.18 499.729C1447.47 495.979 1448.61 491.89 1448.61 487.463V473.323C1447.73 474.052 1446.22 474.729 1444.08 475.354C1442 475.979 1439.65 476.526 1437.05 476.995C1434.45 477.463 1431.87 477.88 1429.32 478.245C1426.76 478.609 1424.55 478.922 1422.68 479.182C1418.46 479.755 1414.68 480.693 1411.35 481.995C1408.01 483.297 1405.38 485.12 1403.46 487.463C1401.53 489.755 1400.57 492.724 1400.57 496.37C1400.57 501.578 1402.47 505.51 1406.27 508.167C1410.07 510.823 1414.92 512.151 1420.8 512.151ZM1548.8 532.854C1536.82 532.854 1526.53 530.224 1517.94 524.963C1509.4 519.703 1502.81 512.437 1498.17 503.167C1493.59 493.844 1491.3 483.114 1491.3 470.979C1491.3 458.792 1493.64 448.036 1498.33 438.713C1503.02 429.338 1509.63 422.047 1518.17 416.838C1526.77 411.578 1536.92 408.948 1548.64 408.948C1558.38 408.948 1567 410.745 1574.5 414.338C1582.05 417.88 1588.07 422.906 1592.55 429.417C1597.03 435.875 1599.58 443.427 1600.2 452.073H1573.17C1572.08 446.292 1569.47 441.474 1565.36 437.62C1561.3 433.713 1555.85 431.76 1549.03 431.76C1543.25 431.76 1538.17 433.323 1533.8 436.448C1529.42 439.521 1526.01 443.948 1523.56 449.729C1521.17 455.51 1519.97 462.437 1519.97 470.51C1519.97 478.687 1521.17 485.719 1523.56 491.604C1525.96 497.437 1529.32 501.943 1533.64 505.12C1538.02 508.245 1543.15 509.807 1549.03 509.807C1553.2 509.807 1556.92 509.026 1560.2 507.463C1563.54 505.849 1566.32 503.531 1568.56 500.51C1570.8 497.489 1572.34 493.818 1573.17 489.495H1600.2C1599.53 497.984 1597.03 505.51 1592.7 512.073C1588.38 518.583 1582.5 523.687 1575.05 527.385C1567.6 531.031 1558.85 532.854 1548.8 532.854ZM1667.75 532.854C1655.72 532.854 1645.33 530.354 1636.58 525.354C1627.88 520.302 1621.19 513.167 1616.5 503.948C1611.81 494.677 1609.47 483.765 1609.47 471.213C1609.47 458.87 1611.81 448.036 1616.5 438.713C1621.24 429.338 1627.86 422.047 1636.34 416.838C1644.83 411.578 1654.81 408.948 1666.27 408.948C1673.66 408.948 1680.64 410.146 1687.2 412.541C1693.82 414.885 1699.65 418.531 1704.7 423.479C1709.81 428.427 1713.82 434.729 1716.74 442.385C1719.65 449.989 1721.11 459.052 1721.11 469.573V478.245H1622.75V459.182H1694C1693.95 453.765 1692.78 448.948 1690.49 444.729C1688.19 440.458 1684.99 437.099 1680.88 434.651C1676.81 432.203 1672.07 430.979 1666.66 430.979C1660.88 430.979 1655.8 432.385 1651.42 435.198C1647.05 437.958 1643.64 441.604 1641.19 446.135C1638.79 450.614 1637.57 455.536 1637.52 460.901V477.542C1637.52 484.521 1638.79 490.51 1641.34 495.51C1643.9 500.458 1647.46 504.26 1652.05 506.917C1656.63 509.521 1662 510.823 1668.14 510.823C1672.26 510.823 1675.98 510.25 1679.31 509.104C1682.65 507.906 1685.54 506.161 1687.99 503.87C1690.43 501.578 1692.28 498.739 1693.53 495.354L1719.94 498.323C1718.27 505.302 1715.09 511.396 1710.41 516.604C1705.77 521.76 1699.83 525.771 1692.59 528.635C1685.36 531.448 1677.07 532.854 1667.75 532.854Z" fill="white"/>
<rect x="455.733" y="872.402" width="48.0773" height="222.357" fill="white"/>
<rect x="570.918" y="872.402" width="48.0773" height="222.357" fill="white"/>
</svg>
