<svg width="3829" height="3829" viewBox="0 0 3829 3829" fill="none" xmlns="http://www.w3.org/2000/svg">
<rect width="3829" height="3829" fill="black"/>
<rect x="888" y="1285" width="2033" height="1242" rx="129" fill="white"/>
<path d="M1777.5 2378V2157L1950 2267.5L1777.5 2378Z" fill="black" stroke="black"/>
<path d="M2203 2378V2157L2375.5 2267.5L2203 2378Z" fill="black" stroke="black"/>
<path d="M2316 2378V2157L2488.5 2267.5L2316 2378Z" fill="black" stroke="black"/>
<path d="M1341.73 1708.98H1312.52C1311.68 1704.19 1310.15 1699.95 1307.91 1696.25C1305.67 1692.5 1302.88 1689.32 1299.55 1686.72C1296.21 1684.11 1292.41 1682.16 1288.14 1680.86C1283.92 1679.51 1279.36 1678.83 1274.47 1678.83C1265.77 1678.83 1258.06 1681.02 1251.34 1685.39C1244.63 1689.71 1239.36 1696.07 1235.56 1704.45C1231.76 1712.79 1229.86 1722.97 1229.86 1735C1229.86 1747.24 1231.76 1757.55 1235.56 1765.94C1239.42 1774.27 1244.68 1780.57 1251.34 1784.84C1258.06 1789.06 1265.74 1791.17 1274.39 1791.17C1279.18 1791.17 1283.66 1790.55 1287.83 1789.3C1292.05 1787.99 1295.82 1786.09 1299.16 1783.59C1302.54 1781.09 1305.38 1778.02 1307.67 1774.37C1310.02 1770.73 1311.63 1766.56 1312.52 1761.87L1341.73 1762.03C1340.64 1769.64 1338.27 1776.77 1334.62 1783.44C1331.03 1790.1 1326.32 1795.99 1320.48 1801.09C1314.65 1806.15 1307.83 1810.1 1300.02 1812.97C1292.2 1815.78 1283.53 1817.19 1274 1817.19C1259.94 1817.19 1247.39 1813.93 1236.34 1807.42C1225.3 1800.91 1216.6 1791.51 1210.25 1779.22C1203.9 1766.93 1200.72 1752.19 1200.72 1735C1200.72 1717.76 1203.92 1703.02 1210.33 1690.78C1216.73 1678.49 1225.46 1669.09 1236.5 1662.58C1247.54 1656.07 1260.04 1652.81 1274 1652.81C1282.91 1652.81 1291.19 1654.06 1298.84 1656.56C1306.5 1659.06 1313.32 1662.73 1319.31 1667.58C1325.3 1672.37 1330.22 1678.26 1334.08 1685.23C1337.98 1692.16 1340.54 1700.08 1341.73 1708.98ZM1410.57 1817.34C1398.85 1817.34 1388.7 1814.77 1380.1 1809.61C1371.51 1804.45 1364.84 1797.24 1360.1 1787.97C1355.41 1778.7 1353.07 1767.86 1353.07 1755.47C1353.07 1743.07 1355.41 1732.21 1360.1 1722.89C1364.84 1713.57 1371.51 1706.33 1380.1 1701.17C1388.7 1696.02 1398.85 1693.44 1410.57 1693.44C1422.29 1693.44 1432.45 1696.02 1441.04 1701.17C1449.63 1706.33 1456.27 1713.57 1460.96 1722.89C1465.7 1732.21 1468.07 1743.07 1468.07 1755.47C1468.07 1767.86 1465.7 1778.7 1460.96 1787.97C1456.27 1797.24 1449.63 1804.45 1441.04 1809.61C1432.45 1814.77 1422.29 1817.34 1410.57 1817.34ZM1410.73 1794.69C1417.08 1794.69 1422.39 1792.94 1426.66 1789.45C1430.94 1785.91 1434.11 1781.17 1436.2 1775.23C1438.33 1769.3 1439.4 1762.68 1439.4 1755.39C1439.4 1748.05 1438.33 1741.41 1436.2 1735.47C1434.11 1729.48 1430.94 1724.71 1426.66 1721.17C1422.39 1717.63 1417.08 1715.86 1410.73 1715.86C1404.22 1715.86 1398.8 1717.63 1394.48 1721.17C1390.21 1724.71 1387 1729.48 1384.87 1735.47C1382.78 1741.41 1381.74 1748.05 1381.74 1755.39C1381.74 1762.68 1382.78 1769.3 1384.87 1775.23C1387 1781.17 1390.21 1785.91 1394.48 1789.45C1398.8 1792.94 1404.22 1794.69 1410.73 1794.69ZM1511.56 1744.69V1815H1483.27V1695H1510.31V1715.39H1511.71C1514.47 1708.67 1518.87 1703.33 1524.92 1699.37C1531.01 1695.42 1538.54 1693.44 1547.49 1693.44C1555.77 1693.44 1562.99 1695.21 1569.13 1698.75C1575.33 1702.29 1580.12 1707.42 1583.51 1714.14C1586.95 1720.86 1588.64 1729.01 1588.59 1738.59V1815H1560.31V1742.97C1560.31 1734.95 1558.22 1728.67 1554.06 1724.14C1549.94 1719.61 1544.24 1717.34 1536.95 1717.34C1532 1717.34 1527.6 1718.44 1523.74 1720.62C1519.94 1722.76 1516.95 1725.86 1514.76 1729.92C1512.62 1733.98 1511.56 1738.91 1511.56 1744.69ZM1668.46 1695V1716.87H1599.48V1695H1668.46ZM1616.51 1666.25H1644.79V1778.91C1644.79 1782.71 1645.36 1785.63 1646.51 1787.66C1647.7 1789.64 1649.27 1790.99 1651.19 1791.72C1653.12 1792.45 1655.26 1792.81 1657.6 1792.81C1659.37 1792.81 1660.99 1792.68 1662.44 1792.42C1663.95 1792.16 1665.1 1791.93 1665.88 1791.72L1670.65 1813.83C1669.14 1814.35 1666.98 1814.92 1664.16 1815.55C1661.4 1816.17 1658.02 1816.54 1654.01 1816.64C1646.92 1816.85 1640.54 1815.78 1634.87 1813.44C1629.19 1811.04 1624.68 1807.34 1621.35 1802.34C1618.07 1797.34 1616.45 1791.09 1616.51 1783.59V1666.25ZM1735.15 1817.34C1723.12 1817.34 1712.73 1814.84 1703.98 1809.84C1695.28 1804.79 1688.59 1797.66 1683.9 1788.44C1679.21 1779.17 1676.87 1768.26 1676.87 1755.7C1676.87 1743.36 1679.21 1732.53 1683.9 1723.2C1688.64 1713.83 1695.25 1706.54 1703.74 1701.33C1712.23 1696.07 1722.2 1693.44 1733.66 1693.44C1741.06 1693.44 1748.04 1694.64 1754.6 1697.03C1761.22 1699.37 1767.05 1703.02 1772.1 1707.97C1777.2 1712.92 1781.22 1719.22 1784.13 1726.87C1787.05 1734.48 1788.51 1743.54 1788.51 1754.06V1762.73H1690.15V1743.67H1761.4C1761.35 1738.26 1760.17 1733.44 1757.88 1729.22C1755.59 1724.95 1752.39 1721.59 1748.27 1719.14C1744.21 1716.69 1739.47 1715.47 1734.05 1715.47C1728.27 1715.47 1723.19 1716.87 1718.82 1719.69C1714.44 1722.45 1711.03 1726.09 1708.59 1730.62C1706.19 1735.1 1704.97 1740.03 1704.91 1745.39V1762.03C1704.91 1769.01 1706.19 1775 1708.74 1780C1711.29 1784.95 1714.86 1788.75 1719.44 1791.41C1724.03 1794.01 1729.39 1795.31 1735.54 1795.31C1739.65 1795.31 1743.38 1794.74 1746.71 1793.59C1750.04 1792.4 1752.93 1790.65 1755.38 1788.36C1757.83 1786.07 1759.68 1783.23 1760.93 1779.84L1787.34 1782.81C1785.67 1789.79 1782.49 1795.89 1777.8 1801.09C1773.17 1806.25 1767.23 1810.26 1759.99 1813.12C1752.75 1815.94 1744.47 1817.34 1735.15 1817.34ZM1831.91 1744.69V1815H1803.63V1695H1830.66V1715.39H1832.07C1834.83 1708.67 1839.23 1703.33 1845.27 1699.37C1851.37 1695.42 1858.89 1693.44 1867.85 1693.44C1876.13 1693.44 1883.35 1695.21 1889.49 1698.75C1895.69 1702.29 1900.48 1707.42 1903.87 1714.14C1907.3 1720.86 1909 1729.01 1908.95 1738.59V1815H1880.66V1742.97C1880.66 1734.95 1878.58 1728.67 1874.41 1724.14C1870.3 1719.61 1864.6 1717.34 1857.3 1717.34C1852.36 1717.34 1847.96 1718.44 1844.1 1720.62C1840.3 1722.76 1837.3 1725.86 1835.12 1729.92C1832.98 1733.98 1831.91 1738.91 1831.91 1744.69ZM1988.82 1695V1716.87H1919.83V1695H1988.82ZM1936.86 1666.25H1965.15V1778.91C1965.15 1782.71 1965.72 1785.63 1966.86 1787.66C1968.06 1789.64 1969.62 1790.99 1971.55 1791.72C1973.48 1792.45 1975.61 1792.81 1977.96 1792.81C1979.73 1792.81 1981.34 1792.68 1982.8 1792.42C1984.31 1792.16 1985.46 1791.93 1986.24 1791.72L1991 1813.83C1989.49 1814.35 1987.33 1814.92 1984.52 1815.55C1981.76 1816.17 1978.37 1816.54 1974.36 1816.64C1967.28 1816.85 1960.9 1815.78 1955.22 1813.44C1949.55 1811.04 1945.04 1807.34 1941.71 1802.34C1938.43 1797.34 1936.81 1791.09 1936.86 1783.59V1666.25ZM2091.87 1698.98C2091.14 1692.16 2088.07 1686.85 2082.65 1683.05C2077.29 1679.24 2070.31 1677.34 2061.72 1677.34C2055.67 1677.34 2050.49 1678.26 2046.17 1680.08C2041.85 1681.9 2038.54 1684.37 2036.25 1687.5C2033.96 1690.62 2032.78 1694.19 2032.73 1698.2C2032.73 1701.54 2033.49 1704.43 2035 1706.87C2036.56 1709.32 2038.67 1711.41 2041.33 1713.12C2043.98 1714.79 2046.92 1716.2 2050.15 1717.34C2053.38 1718.49 2056.64 1719.45 2059.92 1720.23L2074.92 1723.98C2080.96 1725.39 2086.77 1727.29 2092.34 1729.69C2097.97 1732.08 2102.99 1735.1 2107.42 1738.75C2111.9 1742.4 2115.44 1746.8 2118.04 1751.95C2120.65 1757.11 2121.95 1763.15 2121.95 1770.08C2121.95 1779.45 2119.55 1787.71 2114.76 1794.84C2109.97 1801.93 2103.04 1807.47 2093.98 1811.48C2084.97 1815.44 2074.06 1817.42 2061.25 1817.42C2048.8 1817.42 2037.99 1815.49 2028.83 1811.64C2019.71 1807.79 2012.58 1802.16 2007.42 1794.77C2002.32 1787.37 1999.55 1778.36 1999.14 1767.73H2027.65C2028.07 1773.31 2029.79 1777.94 2032.81 1781.64C2035.83 1785.34 2039.76 1788.1 2044.61 1789.92C2049.5 1791.74 2054.97 1792.66 2061.01 1792.66C2067.32 1792.66 2072.84 1791.72 2077.58 1789.84C2082.37 1787.92 2086.12 1785.26 2088.83 1781.87C2091.53 1778.44 2092.91 1774.43 2092.97 1769.84C2092.91 1765.68 2091.69 1762.24 2089.29 1759.53C2086.9 1756.77 2083.54 1754.48 2079.22 1752.66C2074.95 1750.78 2069.95 1749.11 2064.22 1747.66L2046.01 1742.97C2032.84 1739.58 2022.42 1734.45 2014.76 1727.58C2007.16 1720.65 2003.36 1711.46 2003.36 1700C2003.36 1690.57 2005.91 1682.32 2011.01 1675.23C2016.17 1668.15 2023.17 1662.66 2032.03 1658.75C2040.88 1654.79 2050.91 1652.81 2062.11 1652.81C2073.46 1652.81 2083.41 1654.79 2091.95 1658.75C2100.54 1662.66 2107.29 1668.1 2112.19 1675.08C2117.08 1682.01 2119.61 1689.97 2119.76 1698.98H2091.87ZM2137.74 1860V1695H2165.55V1714.84H2167.19C2168.65 1711.93 2170.71 1708.83 2173.37 1705.55C2176.02 1702.21 2179.62 1699.37 2184.15 1697.03C2188.68 1694.64 2194.46 1693.44 2201.49 1693.44C2210.76 1693.44 2219.12 1695.81 2226.57 1700.55C2234.07 1705.23 2240.01 1712.19 2244.38 1721.41C2248.81 1730.57 2251.02 1741.82 2251.02 1755.16C2251.02 1768.33 2248.86 1779.53 2244.54 1788.75C2240.21 1797.97 2234.33 1805 2226.88 1809.84C2219.43 1814.69 2211 1817.11 2201.57 1817.11C2194.69 1817.11 2188.99 1815.96 2184.46 1813.67C2179.93 1811.38 2176.28 1808.62 2173.52 1805.39C2170.81 1802.11 2168.7 1799.01 2167.19 1796.09H2166.02V1860H2137.74ZM2165.47 1755C2165.47 1762.76 2166.57 1769.56 2168.76 1775.39C2171 1781.22 2174.2 1785.78 2178.37 1789.06C2182.58 1792.29 2187.69 1793.91 2193.68 1793.91C2199.93 1793.91 2205.16 1792.24 2209.38 1788.91C2213.6 1785.52 2216.78 1780.91 2218.91 1775.08C2221.1 1769.19 2222.19 1762.5 2222.19 1755C2222.19 1747.55 2221.13 1740.94 2218.99 1735.16C2216.86 1729.37 2213.68 1724.84 2209.46 1721.56C2205.24 1718.28 2199.98 1716.64 2193.68 1716.64C2187.64 1716.64 2182.51 1718.23 2178.29 1721.41C2174.07 1724.58 2170.87 1729.04 2168.68 1734.77C2166.54 1740.49 2165.47 1747.24 2165.47 1755ZM2300.97 1817.42C2293.37 1817.42 2286.52 1816.07 2280.43 1813.36C2274.38 1810.6 2269.59 1806.54 2266.05 1801.17C2262.56 1795.81 2260.82 1789.19 2260.82 1781.33C2260.82 1774.56 2262.07 1768.96 2264.57 1764.53C2267.07 1760.1 2270.48 1756.56 2274.8 1753.91C2279.12 1751.25 2283.99 1749.24 2289.41 1747.89C2294.88 1746.48 2300.53 1745.47 2306.36 1744.84C2313.39 1744.11 2319.1 1743.46 2323.47 1742.89C2327.85 1742.27 2331.02 1741.33 2333 1740.08C2335.03 1738.78 2336.05 1736.77 2336.05 1734.06V1733.59C2336.05 1727.71 2334.31 1723.15 2330.82 1719.92C2327.33 1716.69 2322.3 1715.08 2315.74 1715.08C2308.81 1715.08 2303.32 1716.59 2299.25 1719.61C2295.24 1722.63 2292.53 1726.2 2291.13 1730.31L2264.72 1726.56C2266.81 1719.27 2270.24 1713.18 2275.03 1708.28C2279.83 1703.33 2285.69 1699.64 2292.61 1697.19C2299.54 1694.69 2307.2 1693.44 2315.58 1693.44C2321.36 1693.44 2327.12 1694.11 2332.85 1695.47C2338.58 1696.82 2343.81 1699.06 2348.55 1702.19C2353.29 1705.26 2357.09 1709.45 2359.96 1714.77C2362.87 1720.08 2364.33 1726.72 2364.33 1734.69V1815H2337.14V1798.52H2336.21C2334.49 1801.85 2332.07 1804.97 2328.94 1807.89C2325.87 1810.76 2321.99 1813.07 2317.3 1814.84C2312.66 1816.56 2307.22 1817.42 2300.97 1817.42ZM2308.32 1796.64C2313.99 1796.64 2318.91 1795.52 2323.08 1793.28C2327.25 1790.99 2330.45 1787.97 2332.69 1784.22C2334.98 1780.47 2336.13 1776.38 2336.13 1771.95V1757.81C2335.24 1758.54 2333.73 1759.22 2331.6 1759.84C2329.51 1760.47 2327.17 1761.02 2324.57 1761.48C2321.96 1761.95 2319.38 1762.37 2316.83 1762.73C2314.28 1763.1 2312.07 1763.41 2310.19 1763.67C2305.97 1764.24 2302.2 1765.18 2298.86 1766.48C2295.53 1767.79 2292.9 1769.61 2290.97 1771.95C2289.04 1774.24 2288.08 1777.21 2288.08 1780.86C2288.08 1786.07 2289.98 1790 2293.78 1792.66C2297.59 1795.31 2302.43 1796.64 2308.32 1796.64ZM2436.31 1817.34C2424.33 1817.34 2414.05 1814.71 2405.45 1809.45C2396.91 1804.19 2390.32 1796.93 2385.69 1787.66C2381.1 1778.33 2378.81 1767.6 2378.81 1755.47C2378.81 1743.28 2381.16 1732.53 2385.84 1723.2C2390.53 1713.83 2397.15 1706.54 2405.69 1701.33C2414.28 1696.07 2424.44 1693.44 2436.16 1693.44C2445.9 1693.44 2454.52 1695.23 2462.02 1698.83C2469.57 1702.37 2475.58 1707.4 2480.06 1713.91C2484.54 1720.36 2487.09 1727.92 2487.72 1736.56H2460.69C2459.59 1730.78 2456.99 1725.96 2452.88 1722.11C2448.81 1718.2 2443.37 1716.25 2436.55 1716.25C2430.77 1716.25 2425.69 1717.81 2421.31 1720.94C2416.94 1724.01 2413.53 1728.44 2411.08 1734.22C2408.68 1740 2407.48 1746.93 2407.48 1755C2407.48 1763.18 2408.68 1770.21 2411.08 1776.09C2413.47 1781.93 2416.83 1786.43 2421.16 1789.61C2425.53 1792.73 2430.66 1794.3 2436.55 1794.3C2440.71 1794.3 2444.44 1793.52 2447.72 1791.95C2451.05 1790.34 2453.84 1788.02 2456.08 1785C2458.32 1781.98 2459.85 1778.31 2460.69 1773.98H2487.72C2487.04 1782.47 2484.54 1790 2480.22 1796.56C2475.9 1803.07 2470.01 1808.18 2462.56 1811.87C2455.11 1815.52 2446.36 1817.34 2436.31 1817.34ZM2555.27 1817.34C2543.24 1817.34 2532.84 1814.84 2524.09 1809.84C2515.4 1804.79 2508.7 1797.66 2504.02 1788.44C2499.33 1779.17 2496.99 1768.26 2496.99 1755.7C2496.99 1743.36 2499.33 1732.53 2504.02 1723.2C2508.76 1713.83 2515.37 1706.54 2523.86 1701.33C2532.35 1696.07 2542.32 1693.44 2553.78 1693.44C2561.18 1693.44 2568.16 1694.64 2574.72 1697.03C2581.33 1699.37 2587.17 1703.02 2592.22 1707.97C2597.32 1712.92 2601.33 1719.22 2604.25 1726.87C2607.17 1734.48 2608.63 1743.54 2608.63 1754.06V1762.73H2510.27V1743.67H2581.52C2581.46 1738.26 2580.29 1733.44 2578 1729.22C2575.71 1724.95 2572.51 1721.59 2568.39 1719.14C2564.33 1716.69 2559.59 1715.47 2554.17 1715.47C2548.39 1715.47 2543.31 1716.87 2538.94 1719.69C2534.56 1722.45 2531.15 1726.09 2528.7 1730.62C2526.31 1735.1 2525.08 1740.03 2525.03 1745.39V1762.03C2525.03 1769.01 2526.31 1775 2528.86 1780C2531.41 1784.95 2534.98 1788.75 2539.56 1791.41C2544.15 1794.01 2549.51 1795.31 2555.66 1795.31C2559.77 1795.31 2563.5 1794.74 2566.83 1793.59C2570.16 1792.4 2573.05 1790.65 2575.5 1788.36C2577.95 1786.07 2579.8 1783.23 2581.05 1779.84L2607.45 1782.81C2605.79 1789.79 2602.61 1795.89 2597.92 1801.09C2593.29 1806.25 2587.35 1810.26 2580.11 1813.12C2572.87 1815.94 2564.59 1817.34 2555.27 1817.34Z" fill="black"/>
<rect x="1343" y="2156" width="48" height="222" fill="black"/>
<rect x="1458" y="2156" width="48" height="222" fill="black"/>
</svg>
